<svg xmlns="http://www.w3.org/2000/svg" width="1400" height="360" viewBox="0 0 1400 360" role="img" aria-label="GeoWork README logo">
  <defs>
    <linearGradient id="bg" x1="0" y1="0" x2="1400" y2="360" gradientUnits="userSpaceOnUse">
      <stop offset="0" stop-color="#071225"/><stop offset="0.42" stop-color="#0A3042"/><stop offset="1" stop-color="#05070F"/>
    </linearGradient>
    <linearGradient id="accent" x1="120" y1="62" x2="300" y2="286" gradientUnits="userSpaceOnUse"><stop offset="0" stop-color="#8BFFE2"/><stop offset="0.52" stop-color="#3AD9FF"/><stop offset="1" stop-color="#F4D77E"/></linearGradient>
    <linearGradient id="word" x1="385" y1="86" x2="1036" y2="208" gradientUnits="userSpaceOnUse"><stop offset="0" stop-color="#8BFFE2"/><stop offset="0.5" stop-color="#E7FFFA"/><stop offset="1" stop-color="#FFFFFF"/></linearGradient>
    <filter id="shadow"><feDropShadow dx="0" dy="18" stdDeviation="20" flood-color="#000" flood-opacity="0.36"/></filter>
  </defs>
  <rect x="28" y="28" width="1344" height="304" rx="72" fill="url(#bg)" filter="url(#shadow)"/>
  <g opacity="0.12" stroke="#A7FFF0" stroke-width="1.6"><path d="M70 95H1320M70 150H1320M70 205H1320M70 260H1320"/><path d="M135 54V306M225 54V306M315 54V306M405 54V306M495 54V306M585 54V306M675 54V306M765 54V306M855 54V306M945 54V306M1035 54V306M1125 54V306M1215 54V306M1305 54V306"/></g>
  <g transform="translate(92 63)">
    <circle cx="116" cy="116" r="105" fill="#0B2233" stroke="url(#accent)" stroke-width="8"/>
    <ellipse cx="116" cy="116" rx="105" ry="34" fill="none" stroke="#A4FFEB" stroke-width="3.5" opacity="0.65"/>
    <ellipse cx="116" cy="116" rx="34" ry="105" fill="none" stroke="#A4FFEB" stroke-width="3.5" opacity="0.45"/>
    <path d="M34 158C86 77 177 48 229 74" fill="none" stroke="url(#accent)" stroke-width="7" stroke-linecap="round"/>
    <circle cx="34" cy="158" r="9" fill="#8BFFE2"/><circle cx="229" cy="74" r="10" fill="#F4D77E"/>
    <path d="M68 151H164M84 129v48M116 129v48M148 129v48" stroke="#EFFFFB" stroke-width="3.4" stroke-linecap="round"/>
    <rect x="54" y="126" width="29" height="29" rx="8" fill="#0C2433" stroke="#8BFFE2" stroke-width="3"/>
    <rect x="102" y="116" width="29" height="29" rx="8" fill="#102D3A" stroke="#E9F7FF" stroke-width="3"/>
    <rect x="150" y="126" width="29" height="29" rx="8" fill="#0C2433" stroke="#F2D680" stroke-width="3"/>
  </g>
  <text x="375" y="166" font-family="Inter, Segoe UI, Arial, sans-serif" font-size="118" font-weight="850" letter-spacing="-4" fill="url(#word)">GeoWork</text>
  <text x="383" y="220" font-family="Inter, Segoe UI, Arial, sans-serif" font-size="30" font-weight="680" fill="#9FFFE9" opacity="0.9" letter-spacing="0.3">Local-first AI Agent Workbench for GIS + Remote Sensing</text>
  <g font-family="Inter, Segoe UI, Arial, sans-serif" font-size="24" font-weight="750" fill="#DFFCF8">
    <rect x="382" y="248" width="91" height="38" rx="19" fill="#12394A" stroke="#56EAD0" stroke-opacity="0.45"/><text x="408" y="274">GEE</text>
    <rect x="492" y="248" width="98" height="38" rx="19" fill="#12394A" stroke="#56EAD0" stroke-opacity="0.45"/><text x="516" y="274">QGIS</text>
    <rect x="610" y="248" width="98" height="38" rx="19" fill="#12394A" stroke="#56EAD0" stroke-opacity="0.45"/><text x="634" y="274">GDAL</text>
    <rect x="728" y="248" width="102" height="38" rx="19" fill="#12394A" stroke="#56EAD0" stroke-opacity="0.45"/><text x="750" y="274">Skills</text>
    <rect x="850" y="248" width="89" height="38" rx="19" fill="#12394A" stroke="#F4D77E" stroke-opacity="0.5"/><text x="875" y="274">MCP</text>
  </g>
  <rect x="29.5" y="29.5" width="1341" height="301" rx="70" fill="none" stroke="#D6FFF6" stroke-opacity="0.17" stroke-width="2"/>
</svg>