<svg xmlns="http://www.w3.org/2000/svg" viewBox="0 0 920 620" role="img" aria-label="GeoWork Agent hero illustration">
<defs>
  <radialGradient id="hero-core" cx="38%" cy="32%" r="72%">
    <stop offset="0%" stop-color="#8BFFE2"/>
    <stop offset="18%" stop-color="#3AD9FF"/>
    <stop offset="52%" stop-color="#1E6BFF"/>
    <stop offset="100%" stop-color="#081020"/>
  </radialGradient>
  <linearGradient id="hero-petalA" x1="0" y1="0" x2="1" y2="1">
    <stop offset="0%" stop-color="#8EE6FF" stop-opacity=".94"/>
    <stop offset="58%" stop-color="#1E6BFF" stop-opacity=".94"/>
    <stop offset="100%" stop-color="#5965F2" stop-opacity=".96"/>
  </linearGradient>
  <linearGradient id="hero-petalB" x1="0" y1="0" x2="1" y2="1">
    <stop offset="0%" stop-color="#00D1B2" stop-opacity=".86"/>
    <stop offset="65%" stop-color="#8EE6FF" stop-opacity=".72"/>
    <stop offset="100%" stop-color="#1E6BFF" stop-opacity=".64"/>
  </linearGradient>
  <radialGradient id="hero-glow" cx="50%" cy="48%" r="68%">
    <stop offset="0%" stop-color="#8BFFE2" stop-opacity=".9"/>
    <stop offset="48%" stop-color="#3AD9FF" stop-opacity=".28"/>
    <stop offset="100%" stop-color="#3AD9FF" stop-opacity="0"/>
  </radialGradient>
  <linearGradient id="hero-beam" x1="0" y1="0" x2="0" y2="1">
    <stop offset="0%" stop-color="#8BFFE2" stop-opacity=".72"/>
    <stop offset="72%" stop-color="#3AD9FF" stop-opacity=".16"/>
    <stop offset="100%" stop-color="#3AD9FF" stop-opacity="0"/>
  </linearGradient>
  <filter id="hero-shadow" x="-35%" y="-35%" width="170%" height="170%">
    <feDropShadow dx="0" dy="10" stdDeviation="10" flood-color="#05142E" flood-opacity=".34"/>
    <feDropShadow dx="0" dy="0" stdDeviation="5" flood-color="#3AD9FF" flood-opacity=".20"/>
  </filter>
  <filter id="hero-blur"><feGaussianBlur stdDeviation="5"/></filter>
</defs>
<rect width="920" height="620" rx="52" fill="#F3F7FC"/>
<circle cx="558" cy="304" r="268" fill="#8EE6FF" opacity=".09"/>
<g transform="translate(184 50) scale(3.05)"><g filter="url(#hero-shadow)">
  
  <g opacity=".9">
    <path d="M59 89 L44 124 L88 124 L73 89 Z" fill="url(#hero-beam)"/>
    <ellipse cx="66" cy="124" rx="34" ry="9" fill="#3AD9FF" opacity=".18"/>
    <ellipse cx="66" cy="124" rx="22" ry="5" fill="none" stroke="#8BFFE2" stroke-width="1.5" opacity=".44"/>
  </g>
  
  <ellipse cx="66" cy="69" rx="49" ry="20" fill="none" stroke="#8EE6FF" stroke-width="1.2" opacity=".28" transform="rotate(-13 66 69)"/>
  <ellipse cx="66" cy="69" rx="42" ry="16" fill="none" stroke="#3AD9FF" stroke-width="1" opacity=".20" transform="rotate(28 66 69)"/>
  <path d="M31 81 C46 104 88 106 106 81" fill="none" stroke="#8EE6FF" stroke-width="1" opacity=".22"/>

  <g transform="rotate(0 66 66)">
    <path d="M32 55 C39 25 77 8 101 25 C91 34 74 42 62 56 C52 67 41 66 32 55Z" fill="url(#hero-petalB)" opacity=".86"/>
    <path d="M91 34 C116 46 116 81 91 96 C88 80 82 66 68 57 C79 49 84 42 91 34Z" fill="url(#hero-petalA)" opacity=".95"/>
    <path d="M29 68 C30 91 53 109 78 102 C68 92 60 78 60 63 C48 70 39 72 29 68Z" fill="url(#hero-petalA)" opacity=".88"/>
    <path d="M45 25 C58 15 76 14 89 23 C82 24 70 30 62 38 C55 34 49 30 45 25Z" fill="#8EE6FF" opacity=".56"/>
  </g>
  <circle cx="66" cy="66" r="32" fill="url(#hero-glow)" filter="url(#hero-blur)" opacity=".7"/>
  <circle cx="66" cy="66" r="31" fill="url(#hero-core)"/>
  <circle cx="66" cy="66" r="30" fill="none" stroke="#C9F7FF" stroke-opacity=".38"/>
  <path d="M43 62 C55 54 75 54 90 64" fill="none" stroke="#8EE6FF" stroke-width="1.1" opacity=".35"/>
  <path d="M44 74 C58 82 78 82 90 73" fill="none" stroke="#8EE6FF" stroke-width="1" opacity=".22"/>
  <path d="M66 36 C56 48 56 82 66 96 C76 82 76 48 66 36Z" fill="none" stroke="#8EE6FF" stroke-width=".9" opacity=".24"/>
  <circle cx="54" cy="45" r="1.1" fill="#8BFFE2" opacity=".82"/>
<circle cx="61" cy="41" r="0.8" fill="#8BFFE2" opacity=".82"/>
<circle cx="71" cy="44" r="0.9" fill="#8BFFE2" opacity=".82"/>
<circle cx="80" cy="51" r="0.8" fill="#8BFFE2" opacity=".82"/>
<circle cx="50" cy="56" r="0.8" fill="#8BFFE2" opacity=".82"/>
<circle cx="61" cy="59" r="1.0" fill="#8BFFE2" opacity=".82"/>
<circle cx="72" cy="57" r="0.8" fill="#8BFFE2" opacity=".82"/>
<circle cx="83" cy="62" r="0.7" fill="#8BFFE2" opacity=".82"/>
<circle cx="45" cy="68" r="0.7" fill="#8BFFE2" opacity=".82"/>
<circle cx="56" cy="73" r="0.8" fill="#8BFFE2" opacity=".82"/>
<circle cx="69" cy="72" r="0.9" fill="#8BFFE2" opacity=".82"/>
<circle cx="78" cy="78" r="0.7" fill="#8BFFE2" opacity=".82"/>
<circle cx="88" cy="70" r="0.6" fill="#8BFFE2" opacity=".82"/>
<circle cx="64" cy="85" r="0.8" fill="#8BFFE2" opacity=".82"/>
  <circle cx="66" cy="66" r="7.6" fill="#8BFFE2"/>
  <circle cx="66" cy="66" r="13" fill="#8BFFE2" opacity=".12"/>
  <g fill="none" stroke="#00D1B2" stroke-width="2" opacity=".7"><circle cx="96" cy="38" r="7"/><circle cx="96" cy="38" r="13" opacity=".42"/><path d="M96 38 L112 28"/></g>
  
  
</g></g>
<g opacity=".78" fill="none" stroke="#8EE6FF" stroke-width="1.4">
  <ellipse cx="456" cy="535" rx="180" ry="42"/>
  <ellipse cx="456" cy="535" rx="119" ry="25"/>
  <ellipse cx="456" cy="535" rx="66" ry="13"/>
</g>
<g font-family="Inter, Segoe UI, Arial, sans-serif">
  <text x="56" y="82" font-size="56" font-weight="850" fill="#081020">Geo Agent</text>
  <text x="60" y="124" font-size="24" font-weight="700" fill="#00D1B2">Spatial Intelligence Core</text>
</g>
</svg>